<svg width="103" height="32" viewBox="0 0 103 32" fill="none" xmlns="http://www.w3.org/2000/svg">
<mask id="path-1-outside-1_52_37" maskUnits="userSpaceOnUse" x="0" y="0" width="103" height="32" fill="black">
<rect fill="white" width="103" height="32"/>
<path d="M0.417359 31L12.12 0.546994H14.8173L26.5199 31H23.3441L17.9496 16.7306H8.07411L3.59317 31H0.417359ZM12.4245 2.80922L8.37864 15.6865H17.5581L12.6856 2.80922H12.4245ZM27.0712 0.546994H30.0295V18.9058C30.0295 22.4152 30.8851 25.1559 32.5963 27.1281C34.3364 29.0713 36.7727 30.0429 39.905 30.0429C41.8772 30.0429 43.5883 29.6659 45.0385 28.9118C46.5176 28.1287 47.6487 27.0556 48.4318 25.6925C49.2439 24.3293 49.6209 22.7632 49.5629 20.994L48.8234 0.546994H51.7817L51.0421 20.994C50.9261 24.4744 49.882 27.1136 47.9098 28.9118C45.9666 30.71 43.1823 31.6091 39.5569 31.6091C35.6416 31.6091 32.5818 30.4779 30.3775 28.2157C28.1733 25.9245 27.0712 22.7922 27.0712 18.8188V0.546994ZM56.9957 0.546994H62.8253C65.8996 0.546994 68.2778 1.19956 69.96 2.50469C71.6712 3.78081 72.5267 5.57899 72.5267 7.89922C72.5267 9.6974 71.9902 11.191 70.9171 12.3802C69.873 13.5693 68.3503 14.3669 66.3491 14.7729V15.0339C68.2633 15.411 69.8295 16.3101 71.0476 17.7312C72.2657 19.1523 73.1793 20.907 73.7884 22.9952C74.3394 24.9094 74.876 26.403 75.398 27.4762C75.9491 28.5203 76.5436 29.2743 77.1817 29.7384C77.8488 30.2024 78.6318 30.536 79.5309 30.739V31H77.7473C76.4711 31 75.4125 30.768 74.5714 30.3039C73.7594 29.8399 73.0633 29.0568 72.4832 27.9547C71.9032 26.8526 71.3521 25.3299 70.8301 23.3867C69.989 20.3995 68.8724 18.2822 67.4802 17.0351C66.0881 15.788 64.3914 15.1644 62.3902 15.1644H62.1292V14.3814H62.3902C67.0597 14.3814 69.3944 12.2351 69.3944 7.94272C69.3944 3.70831 67.2047 1.5911 62.8253 1.5911H59.954V31H56.9957V0.546994ZM76.4802 31L88.1828 0.546994H90.8801L102.583 31H99.407L94.0124 16.7306H84.137L79.656 31H76.4802ZM88.4874 2.80922L84.4415 15.6865H93.6209L88.7484 2.80922H88.4874Z"/>
</mask>
<path d="M0.417359 31L12.12 0.546994H14.8173L26.5199 31H23.3441L17.9496 16.7306H8.07411L3.59317 31H0.417359ZM12.4245 2.80922L8.37864 15.6865H17.5581L12.6856 2.80922H12.4245ZM27.0712 0.546994H30.0295V18.9058C30.0295 22.4152 30.8851 25.1559 32.5963 27.1281C34.3364 29.0713 36.7727 30.0429 39.905 30.0429C41.8772 30.0429 43.5883 29.6659 45.0385 28.9118C46.5176 28.1287 47.6487 27.0556 48.4318 25.6925C49.2439 24.3293 49.6209 22.7632 49.5629 20.994L48.8234 0.546994H51.7817L51.0421 20.994C50.9261 24.4744 49.882 27.1136 47.9098 28.9118C45.9666 30.71 43.1823 31.6091 39.5569 31.6091C35.6416 31.6091 32.5818 30.4779 30.3775 28.2157C28.1733 25.9245 27.0712 22.7922 27.0712 18.8188V0.546994ZM56.9957 0.546994H62.8253C65.8996 0.546994 68.2778 1.19956 69.96 2.50469C71.6712 3.78081 72.5267 5.57899 72.5267 7.89922C72.5267 9.6974 71.9902 11.191 70.9171 12.3802C69.873 13.5693 68.3503 14.3669 66.3491 14.7729V15.0339C68.2633 15.411 69.8295 16.3101 71.0476 17.7312C72.2657 19.1523 73.1793 20.907 73.7884 22.9952C74.3394 24.9094 74.876 26.403 75.398 27.4762C75.9491 28.5203 76.5436 29.2743 77.1817 29.7384C77.8488 30.2024 78.6318 30.536 79.5309 30.739V31H77.7473C76.4711 31 75.4125 30.768 74.5714 30.3039C73.7594 29.8399 73.0633 29.0568 72.4832 27.9547C71.9032 26.8526 71.3521 25.3299 70.8301 23.3867C69.989 20.3995 68.8724 18.2822 67.4802 17.0351C66.0881 15.788 64.3914 15.1644 62.3902 15.1644H62.1292V14.3814H62.3902C67.0597 14.3814 69.3944 12.2351 69.3944 7.94272C69.3944 3.70831 67.2047 1.5911 62.8253 1.5911H59.954V31H56.9957V0.546994ZM76.4802 31L88.1828 0.546994H90.8801L102.583 31H99.407L94.0124 16.7306H84.137L79.656 31H76.4802ZM88.4874 2.80922L84.4415 15.6865H93.6209L88.7484 2.80922H88.4874Z" fill="url(#paint0_linear_52_37)"/>
<path d="M0.417359 31L0.152705 30.8983L0.00466901 31.2835H0.417359V31ZM12.12 0.546994V0.263472H11.9252L11.8554 0.445291L12.12 0.546994ZM14.8173 0.546994L15.0819 0.445291L15.0121 0.263472H14.8173V0.546994ZM26.5199 31V31.2835H26.9326L26.7846 30.8983L26.5199 31ZM23.3441 31L23.0789 31.1003L23.1482 31.2835H23.3441V31ZM17.9496 16.7306L18.2148 16.6303L18.1455 16.4471H17.9496V16.7306ZM8.07411 16.7306V16.4471H7.86597L7.80362 16.6456L8.07411 16.7306ZM3.59317 31V31.2835H3.80131L3.86367 31.0849L3.59317 31ZM12.4245 2.80922V2.5257H12.2164L12.1541 2.72424L12.4245 2.80922ZM8.37864 15.6865L8.10816 15.6015L7.99238 15.97H8.37864V15.6865ZM17.5581 15.6865V15.97H17.9685L17.8232 15.5862L17.5581 15.6865ZM12.6856 2.80922L12.9507 2.70888L12.8814 2.5257H12.6856V2.80922ZM0.417359 31L0.682012 31.1017L12.3847 0.648696L12.12 0.546994L11.8554 0.445291L0.152705 30.8983L0.417359 31ZM12.12 0.546994V0.830516H14.8173V0.546994V0.263472H12.12V0.546994ZM14.8173 0.546994L14.5526 0.648696L26.2553 31.1017L26.5199 31L26.7846 30.8983L15.0819 0.445291L14.8173 0.546994ZM26.5199 31V30.7165H23.3441V31V31.2835H26.5199V31ZM23.3441 31L23.6093 30.8997L18.2148 16.6303L17.9496 16.7306L17.6844 16.8309L23.0789 31.1003L23.3441 31ZM17.9496 16.7306V16.4471H8.07411V16.7306V17.0141H17.9496V16.7306ZM8.07411 16.7306L7.80362 16.6456L3.32267 30.9151L3.59317 31L3.86367 31.0849L8.34461 16.8155L8.07411 16.7306ZM3.59317 31V30.7165H0.417359V31V31.2835H3.59317V31ZM12.4245 2.80922L12.1541 2.72424L8.10816 15.6015L8.37864 15.6865L8.64913 15.7715L12.695 2.8942L12.4245 2.80922ZM8.37864 15.6865V15.97H17.5581V15.6865V15.403H8.37864V15.6865ZM17.5581 15.6865L17.8232 15.5862L12.9507 2.70888L12.6856 2.80922L12.4204 2.90956L17.2929 15.7868L17.5581 15.6865ZM12.6856 2.80922V2.5257H12.4245V2.80922V3.09274H12.6856V2.80922ZM27.0712 0.546994V0.263472H26.7877V0.546994H27.0712ZM30.0295 0.546994H30.313V0.263472H30.0295V0.546994ZM32.5963 27.1281L32.3821 27.3139L32.3851 27.3173L32.5963 27.1281ZM45.0385 28.9118L45.1693 29.1633L45.1711 29.1624L45.0385 28.9118ZM48.4318 25.6925L48.1882 25.5473L48.186 25.5512L48.4318 25.6925ZM49.5629 20.994L49.8463 20.9847L49.8463 20.9838L49.5629 20.994ZM48.8234 0.546994V0.263472H48.5294L48.54 0.557242L48.8234 0.546994ZM51.7817 0.546994L52.065 0.557242L52.0756 0.263472H51.7817V0.546994ZM51.0421 20.994L50.7587 20.9838L50.7587 20.9846L51.0421 20.994ZM47.9098 28.9118L47.7187 28.7023L47.7172 28.7037L47.9098 28.9118ZM30.3775 28.2157L30.1732 28.4123L30.1745 28.4136L30.3775 28.2157ZM27.0712 0.546994V0.830516H30.0295V0.546994V0.263472H27.0712V0.546994ZM30.0295 0.546994H29.746V18.9058H30.0295H30.313V0.546994H30.0295ZM30.0295 18.9058H29.746C29.746 22.4597 30.6128 25.2747 32.3821 27.3139L32.5963 27.1281L32.8104 26.9423C31.1574 25.0371 30.313 22.3706 30.313 18.9058H30.0295ZM32.5963 27.1281L32.3851 27.3173C34.1897 29.3325 36.7097 30.3264 39.905 30.3264V30.0429V29.7594C36.8357 29.7594 34.4831 28.8101 32.8075 26.939L32.5963 27.1281ZM39.905 30.0429V30.3264C41.9134 30.3264 43.6712 29.9423 45.1693 29.1633L45.0385 28.9118L44.9077 28.6602C43.5055 29.3894 41.841 29.7594 39.905 29.7594V30.0429ZM45.0385 28.9118L45.1711 29.1624C46.6944 28.3559 47.8662 27.2463 48.6777 25.8337L48.4318 25.6925L48.186 25.5512C47.4313 26.8649 46.3409 27.9015 44.9058 28.6612L45.0385 28.9118ZM48.4318 25.6925L48.6754 25.8376C49.5184 24.4226 49.9059 22.8016 49.8463 20.9847L49.5629 20.994L49.2796 21.0033C49.336 22.7247 48.9694 24.2361 48.1882 25.5474L48.4318 25.6925ZM49.5629 20.994L49.8463 20.9838L49.1067 0.536745L48.8234 0.546994L48.54 0.557242L49.2796 21.0043L49.5629 20.994ZM48.8234 0.546994V0.830516H51.7817V0.546994V0.263472H48.8234V0.546994ZM51.7817 0.546994L51.4983 0.536745L50.7587 20.9838L51.0421 20.994L51.3254 21.0043L52.065 0.557242L51.7817 0.546994ZM51.0421 20.994L50.7587 20.9846C50.6444 24.4128 49.6187 26.97 47.7187 28.7023L47.9098 28.9118L48.1008 29.1213C50.1453 27.2572 51.2077 24.5359 51.3254 21.0035L51.0421 20.994ZM47.9098 28.9118L47.7172 28.7037C45.8432 30.4379 43.1376 31.3255 39.5569 31.3255V31.6091V31.8926C43.227 31.8926 46.09 30.9821 48.1023 29.1199L47.9098 28.9118ZM39.5569 31.6091V31.3255C35.6985 31.3255 32.7192 30.2128 30.5806 28.0179L30.3775 28.2157L30.1745 28.4136C32.4443 30.7431 35.5846 31.8926 39.5569 31.8926V31.6091ZM30.3775 28.2157L30.5819 28.0192C28.4404 25.7932 27.3547 22.7381 27.3547 18.8188H27.0712H26.7877C26.7877 22.8463 27.9063 26.0558 30.1732 28.4123L30.3775 28.2157ZM27.0712 18.8188H27.3547V0.546994H27.0712H26.7877V18.8188H27.0712ZM56.9957 0.546994V0.263472H56.7122V0.546994H56.9957ZM69.96 2.50469L69.7862 2.72874L69.7905 2.73197L69.96 2.50469ZM70.9171 12.3802L70.7066 12.1902L70.704 12.1931L70.9171 12.3802ZM66.3491 14.7729L66.2928 14.495L66.0656 14.5411V14.7729H66.3491ZM66.3491 15.0339H66.0656V15.267L66.2943 15.3121L66.3491 15.0339ZM71.0476 17.7312L70.8323 17.9157L70.8323 17.9157L71.0476 17.7312ZM73.7884 22.9952L74.0608 22.9168L74.0605 22.9158L73.7884 22.9952ZM75.398 27.4762L75.1429 27.6003L75.1473 27.6085L75.398 27.4762ZM77.1817 29.7384L77.0149 29.9677L77.0198 29.9711L77.1817 29.7384ZM79.5309 30.739H79.8145V30.5123L79.5934 30.4624L79.5309 30.739ZM79.5309 31V31.2835H79.8145V31H79.5309ZM74.5714 30.3039L74.4308 30.5501L74.4345 30.5522L74.5714 30.3039ZM72.4832 27.9547L72.2323 28.0867L72.2323 28.0867L72.4832 27.9547ZM70.8301 23.3867L71.1039 23.3132L71.103 23.3099L70.8301 23.3867ZM67.4802 17.0351L67.2911 17.2463L67.2911 17.2463L67.4802 17.0351ZM62.1292 15.1644H61.8457V15.448H62.1292V15.1644ZM62.1292 14.3814V14.0978H61.8457V14.3814H62.1292ZM59.954 1.5911V1.30757H59.6705V1.5911H59.954ZM59.954 31V31.2835H60.2375V31H59.954ZM56.9957 31H56.7122V31.2835H56.9957V31ZM56.9957 0.546994V0.830516H62.8253V0.546994V0.263472H56.9957V0.546994ZM62.8253 0.546994V0.830516C65.8637 0.830516 68.1716 1.47597 69.7862 2.72869L69.96 2.50469L70.1338 2.28068C68.3841 0.923147 65.9355 0.263472 62.8253 0.263472V0.546994ZM69.96 2.50469L69.7905 2.73197C71.423 3.94941 72.2432 5.65948 72.2432 7.89922H72.5267H72.8103C72.8103 5.4985 71.9193 3.61222 70.1295 2.27741L69.96 2.50469ZM72.5267 7.89922H72.2432C72.2432 9.63648 71.7268 11.0597 70.7066 12.1902L70.9171 12.3802L71.1276 12.5701C72.2535 11.3224 72.8103 9.75832 72.8103 7.89922H72.5267ZM70.9171 12.3802L70.704 12.1931C69.7114 13.3237 68.251 14.0977 66.2928 14.495L66.3491 14.7729L66.4055 15.0508C68.4497 14.636 70.0346 13.8149 71.1301 12.5672L70.9171 12.3802ZM66.3491 14.7729H66.0656V15.0339H66.3491H66.6327V14.7729H66.3491ZM66.3491 15.0339L66.2943 15.3121C68.1489 15.6774 69.6575 16.5451 70.8323 17.9157L71.0476 17.7312L71.2629 17.5467C70.0014 16.075 68.3778 15.1445 66.4039 14.7557L66.3491 15.0339ZM71.0476 17.7312L70.8323 17.9157C72.0203 19.3017 72.9166 21.0189 73.5162 23.0746L73.7884 22.9952L74.0605 22.9158C73.442 20.7952 72.5111 19.003 71.2629 17.5467L71.0476 17.7312ZM73.7884 22.9952L73.5159 23.0736C74.0689 24.9946 74.6107 26.5059 75.1431 27.6002L75.398 27.4762L75.653 27.3521C75.1412 26.3001 74.6099 24.8242 74.0608 22.9168L73.7884 22.9952ZM75.398 27.4762L75.1473 27.6085C75.7094 28.6735 76.3288 29.4687 77.0149 29.9677L77.1817 29.7384L77.3485 29.5091C76.7585 29.08 76.1888 28.367 75.6488 27.3438L75.398 27.4762ZM77.1817 29.7384L77.0198 29.9711C77.7206 30.4587 78.5385 30.8055 79.4685 31.0155L79.5309 30.739L79.5934 30.4624C78.7252 30.2664 77.9769 29.9462 77.3436 29.5056L77.1817 29.7384ZM79.5309 30.739H79.2474V31H79.5309H79.8145V30.739H79.5309ZM79.5309 31V30.7165H77.7473V31V31.2835H79.5309V31ZM77.7473 31V30.7165C76.5039 30.7165 75.496 30.4902 74.7084 30.0557L74.5714 30.3039L74.4345 30.5522C75.329 31.0457 76.4384 31.2835 77.7473 31.2835V31ZM74.5714 30.3039L74.7121 30.0578C73.96 29.628 73.2972 28.8925 72.7341 27.8227L72.4832 27.9547L72.2323 28.0867C72.8294 29.2212 73.5587 30.0518 74.4308 30.5501L74.5714 30.3039ZM72.4832 27.9547L72.7341 27.8227C72.168 26.7469 71.6234 25.2469 71.1039 23.3132L70.8301 23.3867L70.5563 23.4603C71.0809 25.413 71.6384 26.9583 72.2323 28.0867L72.4832 27.9547ZM70.8301 23.3867L71.103 23.3099C70.2559 20.3015 69.1202 18.1236 67.6694 16.8239L67.4802 17.0351L67.2911 17.2463C68.6246 18.4409 69.722 20.4975 70.5572 23.4636L70.8301 23.3867ZM67.4802 17.0351L67.6694 16.8239C66.2214 15.5268 64.4559 14.8809 62.3902 14.8809V15.1644V15.448C64.327 15.448 65.9548 16.0492 67.2911 17.2463L67.4802 17.0351ZM62.3902 15.1644V14.8809H62.1292V15.1644V15.448H62.3902V15.1644ZM62.1292 15.1644H62.4127V14.3814H62.1292H61.8457V15.1644H62.1292ZM62.1292 14.3814V14.6649H62.3902V14.3814V14.0978H62.1292V14.3814ZM62.3902 14.3814V14.6649C64.763 14.6649 66.5955 14.1201 67.8353 12.9804C69.0795 11.8366 69.678 10.1391 69.678 7.94272H69.3944H69.1109C69.1109 10.0388 68.542 11.5606 67.4515 12.563C66.3565 13.5695 64.6869 14.0978 62.3902 14.0978V14.3814ZM69.3944 7.94272H69.678C69.678 5.77934 69.1181 4.10531 67.9492 2.97518C66.7822 1.84676 65.0564 1.30757 62.8253 1.30757V1.5911V1.87462C64.9736 1.87462 66.5324 2.39403 67.5551 3.38283C68.576 4.36991 69.1109 5.87169 69.1109 7.94272H69.3944ZM62.8253 1.5911V1.30757H59.954V1.5911V1.87462H62.8253V1.5911ZM59.954 1.5911H59.6705V31H59.954H60.2375V1.5911H59.954ZM59.954 31V30.7165H56.9957V31V31.2835H59.954V31ZM56.9957 31H57.2792V0.546994H56.9957H56.7122V31H56.9957ZM76.4802 31L76.2155 30.8983L76.0675 31.2835H76.4802V31ZM88.1828 0.546994V0.263472H87.9881L87.9182 0.445291L88.1828 0.546994ZM90.8801 0.546994L91.1448 0.445291L91.0749 0.263472H90.8801V0.546994ZM102.583 31V31.2835H102.995L102.847 30.8983L102.583 31ZM99.407 31L99.1418 31.1003L99.211 31.2835H99.407V31ZM94.0124 16.7306L94.2776 16.6303L94.2083 16.4471H94.0124V16.7306ZM84.137 16.7306V16.4471H83.9288L83.8665 16.6456L84.137 16.7306ZM79.656 31V31.2835H79.8641L79.9265 31.0849L79.656 31ZM88.4874 2.80922V2.5257H88.2793L88.2169 2.72424L88.4874 2.80922ZM84.4415 15.6865L84.171 15.6015L84.0552 15.97H84.4415V15.6865ZM93.6209 15.6865V15.97H94.0313L93.8861 15.5862L93.6209 15.6865ZM88.7484 2.80922L89.0136 2.70888L88.9443 2.5257H88.7484V2.80922ZM76.4802 31L76.7448 31.1017L88.4475 0.648696L88.1828 0.546994L87.9182 0.445291L76.2155 30.8983L76.4802 31ZM88.1828 0.546994V0.830516H90.8801V0.546994V0.263472H88.1828V0.546994ZM90.8801 0.546994L90.6155 0.648696L102.318 31.1017L102.583 31L102.847 30.8983L91.1448 0.445291L90.8801 0.546994ZM102.583 31V30.7165H99.407V31V31.2835H102.583V31ZM99.407 31L99.6722 30.8997L94.2776 16.6303L94.0124 16.7306L93.7472 16.8309L99.1418 31.1003L99.407 31ZM94.0124 16.7306V16.4471H84.137V16.7306V17.0141H94.0124V16.7306ZM84.137 16.7306L83.8665 16.6456L79.3855 30.9151L79.656 31L79.9265 31.0849L84.4074 16.8155L84.137 16.7306ZM79.656 31V30.7165H76.4802V31V31.2835H79.656V31ZM88.4874 2.80922L88.2169 2.72424L84.171 15.6015L84.4415 15.6865L84.712 15.7715L88.7579 2.8942L88.4874 2.80922ZM84.4415 15.6865V15.97H93.6209V15.6865V15.403H84.4415V15.6865ZM93.6209 15.6865L93.8861 15.5862L89.0136 2.70888L88.7484 2.80922L88.4832 2.90956L93.3557 15.7868L93.6209 15.6865ZM88.7484 2.80922V2.5257H88.4874V2.80922V3.09274H88.7484V2.80922Z" fill="#7C5EFF" mask="url(#path-1-outside-1_52_37)"/>
<defs>
<linearGradient id="paint0_linear_52_37" x1="51.635" y1="-9" x2="51.635" y2="41" gradientUnits="userSpaceOnUse">
<stop offset="0.572115" stop-color="#FFFDFA"/>
<stop offset="0.875" stop-color="#74B6FE"/>
</linearGradient>
</defs>
</svg>
